<svg viewBox="0 0 400 400" xmlns="http://www.w3.org/2000/svg">
<defs>
<linearGradient id="goldGradientBanner" x1="0%" y1="0%" x2="100%" y2="100%">
<stop offset="0%" style="stop-color: rgb(255, 215, 0); stop-opacity: 1;"></stop>
<stop offset="50%" style="stop-color: rgb(255, 165, 0); stop-opacity: 1;"></stop>
<stop offset="100%" style="stop-color: rgb(255, 140, 0); stop-opacity: 1;"></stop>
</linearGradient>
<linearGradient id="houseGradientBanner" x1="0%" y1="0%" x2="0%" y2="100%">
<stop offset="0%" style="stop-color: rgb(44, 62, 80); stop-opacity: 1;"></stop>
<stop offset="100%" style="stop-color: rgb(52, 73, 94); stop-opacity: 1;"></stop>
</linearGradient>
<filter id="glowBanner">
<feGaussianBlur stdDeviation="2" result="coloredBlur"></feGaussianBlur>
<feMerge>
<feMergeNode in="coloredBlur"></feMergeNode>
<feMergeNode in="SourceGraphic"></feMergeNode>
</feMerge>
</filter>
</defs>
<circle cx="200" cy="200" r="180" fill="#F8F9FA" opacity="0.3"></circle>
<g transform="translate(200, 200)">
<path d="M -60 -20 L 0 -70 L 60 -20 Z" fill="url(#houseGradientBanner)"></path>
<rect x="-50" y="-20" width="100" height="80" fill="url(#houseGradientBanner)" opacity="0.9"></rect>
<rect x="-15" y="20" width="30" height="40" fill="#34495E" rx="2"></rect>
<rect x="-40" y="0" width="20" height="20" fill="#3498DB" opacity="0.7"></rect>
<rect x="20" y="0" width="20" height="20" fill="#3498DB" opacity="0.7"></rect>
</g>
<g transform="translate(100, 180)" filter="url(#glowBanner)">
<path d="M 0 -12 L 8 -6 L 10 4 L 2 10 L -6 8 L -10 0 L -4 -8 Z" fill="url(#goldGradientBanner)" stroke="#FF8C00" stroke-width="1.5"></path>
<ellipse cx="0" cy="-2" rx="3" ry="4" fill="#FFE55C" opacity="0.6"></ellipse>
</g>
<g transform="translate(300, 180)" filter="url(#glowBanner)">
<path d="M 0 -10 L 7 -4 L 8 5 L 1 9 L -5 7 L -8 1 L -3 -7 Z" fill="url(#goldGradientBanner)" stroke="#FF8C00" stroke-width="1.5"></path>
<ellipse cx="0" cy="-1" rx="2.5" ry="3.5" fill="#FFE55C" opacity="0.6"></ellipse>
</g>
<g transform="translate(270, 100)" filter="url(#glowBanner)">
<path d="M 0 -8 L 6 -3 L 6 4 L 0 8 L -5 5 L -6 -1 L -2 -6 Z" fill="url(#goldGradientBanner)" stroke="#FF8C00" stroke-width="1.5"></path>
<ellipse cx="0" cy="0" rx="2" ry="3" fill="#FFE55C" opacity="0.6"></ellipse>
</g>
<g opacity="0.7">
<path d="M 130 130 L 132 135 L 137 135 L 133 138 L 135 143 L 130 140 L 125 143 L 127 138 L 123 135 L 128 135 Z" fill="#FFD700"></path>
<path d="M 280 240 L 282 244 L 286 244 L 283 247 L 284 251 L 280 248 L 276 251 L 277 247 L 274 244 L 278 244 Z" fill="#FFD700"></path>
<path d="M 320 130 L 321 133 L 324 133 L 322 135 L 323 138 L 320 136 L 317 138 L 318 135 L 316 133 L 319 133 Z" fill="#FFA500"></path>
</g>
</svg>
